#include "hUGEDriver.h"
#include <stddef.h>

#pragma bank 255

BANKREF(hotayab)

static const unsigned char order_cnt = 20;

static const unsigned char P0[] = {
    DN(C_4,9,0x000),
    DN(___,0,0xC04),
    DN(C_4,3,0x000),
    DN(___,0,0xC04),
    DN(G_4,10,0x000),
    DN(___,0,0xC04),
    DN(C_4,3,0x000),
    DN(___,0,0xC04),
    DN(G_4,9,0x000),
    DN(___,0,0xC04),
    DN(C_4,9,0x000),
    DN(___,0,0xC04),
    DN(G_4,10,0x000),
    DN(___,0,0xC04),
    DN(G_4,3,0x000),
    DN(___,0,0xC04),
    DN(G_3,9,0x000),
    DN(___,0,0xC04),
    DN(G_3,9,0x000),
    DN(___,0,0xC04),
    DN(D_4,10,0x000),
    DN(___,0,0xC04),
    DN(G_3,9,0x000),
    DN(___,0,0xC04),
    DN(G_3,3,0x000),
    DN(___,0,0xC04),
    DN(D_4,9,0x000),
    DN(___,0,0xC04),
    DN(G_3,10,0x000),
    DN(___,0,0xC04),
    DN(D_4,3,0x000),
    DN(___,0,0xC04),
    DN(B_3,9,0x000),
    DN(___,0,0xC04),
    DN(B_3,3,0x000),
    DN(___,0,0xC04),
    DN(F_4,10,0x000),
    DN(___,0,0xC04),
    DN(B_3,3,0x000),
    DN(___,0,0xC04),
    DN(B_3,9,0x000),
    DN(___,0,0xC04),
    DN(F_4,9,0x000),
    DN(___,0,0xC04),
    DN(B_3,10,0x000),
    DN(___,0,0xC04),
    DN(F_4,3,0x000),
    DN(___,0,0xC04),
    DN(C_4,9,0x000),
    DN(___,0,0xC04),
    DN(C_4,9,0x000),
    DN(___,0,0xC04),
    DN(G_4,10,0x000),
    DN(___,0,0xC04),
    DN(C_4,9,0x000),
    DN(___,0,0xC04),
    DN(G_4,3,0x000),
    DN(___,0,0xC04),
    DN(C_4,9,0x000),
    DN(___,0,0xC04),
    DN(G_4,10,0x000),
    DN(___,0,0xC04),
    DN(G_4,3,0x000),
    DN(___,0,0xC04),
};
static const unsigned char P1[] = {
    DN(___,0,0xC00),
    DN(___,0,0x000),
    DN(C_5,3,0xC02),
    DN(___,0,0x000),
    DN(G_4,0,0x000),
    DN(___,0,0x000),
    DN(D_5,0,0x000),
    DN(___,0,0x000),
    DN(Ds5,0,0x000),
    DN(___,0,0x000),
    DN(___,0,0x000),
    DN(___,0,0x000),
    DN(C_5,0,0x000),
    DN(___,0,0x000),
    DN(___,0,0x000),
    DN(___,0,0x000),
    DN(D_5,0,0x000),
    DN(___,0,0x000),
    DN(___,0,0x000),
    DN(___,0,0x000),
    DN(___,0,0x000),
    DN(___,0,0x000),
    DN(___,0,0x000),
    DN(___,0,0x000),
    DN(___,0,0x000),
    DN(___,0,0x000),
    DN(___,0,0x000),
    DN(___,0,0x000),
    DN(___,0,0x000),
    DN(___,0,0x000),
    DN(___,0,0x000),
    DN(___,0,0x000),
    DN(___,0,0x000),
    DN(___,0,0x000),
    DN(B_4,0,0x000),
    DN(___,0,0x000),
    DN(G_4,0,0x000),
    DN(___,0,0x000),
    DN(B_4,0,0x000),
    DN(___,0,0x000),
    DN(D_5,0,0x000),
    DN(___,0,0x000),
    DN(___,0,0x000),
    DN(___,0,0x000),
    DN(B_4,0,0x000),
    DN(___,0,0x000),
    DN(___,0,0x000),
    DN(___,0,0x000),
    DN(___,0,0x000),
    DN(___,0,0x000),
    DN(C_5,0,0x000),
    DN(___,0,0x000),
    DN(G_4,0,0x000),
    DN(___,0,0x000),
    DN(D_5,0,0x000),
    DN(___,0,0x000),
    DN(G_4,0,0x000),
    DN(___,0,0x000),
    DN(Ds5,0,0x000),
    DN(___,0,0x000),
    DN(G_4,0,0x000),
    DN(___,0,0x000),
    DN(F_5,0,0x000),
    DN(___,0,0x000),
};
static const unsigned char P2[] = {
    DN(C_6,4,0x8FD),
    DN(___,0,0x000),
    DN(G_5,4,0x000),
    DN(___,0,0x000),
    DN(D_6,4,0x000),
    DN(___,0,0x000),
    DN(Ds6,4,0x000),
    DN(___,0,0x000),
    DN(___,0,0xC04),
    DN(___,0,0x000),
    DN(C_6,4,0x000),
    DN(___,0,0x000),
    DN(___,0,0xC04),
    DN(___,0,0x000),
    DN(D_6,4,0x000),
    DN(___,0,0x482),
    DN(___,0,0x482),
    DN(___,0,0x482),
    DN(___,0,0x482),
    DN(___,0,0x482),
    DN(___,0,0x482),
    DN(___,0,0x482),
    DN(___,0,0x482),
    DN(___,0,0x482),
    DN(___,0,0xC04),
    DN(___,0,0x000),
    DN(___,0,0x000),
    DN(___,0,0x000),
    DN(___,0,0x000),
    DN(___,0,0x000),
    DN(___,0,0x000),
    DN(___,0,0x000),
    DN(B_5,4,0x000),
    DN(___,0,0x000),
    DN(G_5,4,0x000),
    DN(___,0,0x000),
    DN(B_5,4,0x000),
    DN(___,0,0x000),
    DN(D_6,4,0x000),
    DN(___,0,0x000),
    DN(___,0,0xC04),
    DN(___,0,0x000),
    DN(B_5,4,0x000),
    DN(___,0,0x000),
    DN(___,0,0xC04),
    DN(___,0,0x000),
    DN(___,0,0x000),
    DN(___,0,0x000),
    DN(C_6,3,0x000),
    DN(___,0,0x000),
    DN(G_5,3,0x000),
    DN(___,0,0x000),
    DN(D_6,3,0x000),
    DN(___,0,0x000),
    DN(G_5,3,0x000),
    DN(___,0,0x000),
    DN(Ds6,3,0x000),
    DN(___,0,0x000),
    DN(G_5,3,0x000),
    DN(___,0,0x000),
    DN(F_6,3,0x000),
    DN(___,0,0x000),
    DN(G_5,3,0x000),
    DN(___,0,0x000),
};
static const unsigned char P3[] = {
    DN(C_8,1,0x000),
    DN(___,0,0x000),
    DN(C_8,3,0x000),
    DN(___,0,0x000),
    DN(C_8,2,0x000),
    DN(___,0,0x000),
    DN(C_8,3,0x000),
    DN(___,0,0x000),
    DN(C_8,1,0x000),
    DN(___,0,0x000),
    DN(C_8,1,0x000),
    DN(___,0,0x000),
    DN(C_8,2,0x000),
    DN(___,0,0x000),
    DN(C_8,3,0x000),
    DN(___,0,0x000),
    DN(C_8,1,0x000),
    DN(___,0,0x000),
    DN(C_8,1,0x000),
    DN(___,0,0x000),
    DN(C_8,2,0x000),
    DN(___,0,0x000),
    DN(C_8,1,0x000),
    DN(___,0,0x000),
    DN(C_8,3,0x000),
    DN(___,0,0x000),
    DN(C_8,1,0x000),
    DN(___,0,0x000),
    DN(C_8,2,0x000),
    DN(___,0,0x000),
    DN(C_8,3,0x000),
    DN(___,0,0x000),
    DN(C_8,1,0x000),
    DN(___,0,0x000),
    DN(C_8,3,0x000),
    DN(___,0,0x000),
    DN(C_8,2,0x000),
    DN(___,0,0x000),
    DN(C_8,3,0x000),
    DN(___,0,0x000),
    DN(C_8,1,0x000),
    DN(___,0,0x000),
    DN(C_8,1,0x000),
    DN(___,0,0x000),
    DN(C_8,2,0x000),
    DN(___,0,0x000),
    DN(C_8,3,0x000),
    DN(___,0,0x000),
    DN(C_8,1,0x000),
    DN(___,0,0x000),
    DN(C_8,1,0x000),
    DN(___,0,0x000),
    DN(C_8,2,0x000),
    DN(___,0,0x000),
    DN(C_8,1,0x000),
    DN(___,0,0x000),
    DN(C_8,3,0x000),
    DN(___,0,0x000),
    DN(C_8,1,0x000),
    DN(___,0,0x000),
    DN(C_8,2,0x000),
    DN(___,0,0x000),
    DN(C_8,3,0x000),
    DN(___,0,0x000),
};
static const unsigned char P4[] = {
    DN(C_4,9,0x000),
    DN(___,0,0xC04),
    DN(C_4,3,0x000),
    DN(___,0,0xC04),
    DN(G_4,10,0x000),
    DN(___,0,0xC04),
    DN(C_4,3,0x000),
    DN(___,0,0xC04),
    DN(G_4,9,0x000),
    DN(___,0,0xC04),
    DN(C_4,9,0x000),
    DN(___,0,0xC04),
    DN(G_4,10,0x000),
    DN(___,0,0xC04),
    DN(G_4,3,0x000),
    DN(___,0,0xC04),
    DN(G_3,9,0x000),
    DN(___,0,0xC04),
    DN(G_3,9,0x000),
    DN(___,0,0xC04),
    DN(D_4,10,0x000),
    DN(___,0,0xC04),
    DN(G_3,9,0x000),
    DN(___,0,0xC04),
    DN(G_3,3,0x000),
    DN(___,0,0xC04),
    DN(D_4,9,0x000),
    DN(___,0,0xC04),
    DN(G_3,10,0x000),
    DN(___,0,0xC04),
    DN(D_4,3,0x000),
    DN(___,0,0xC04),
    DN(G_3,9,0x000),
    DN(___,0,0xC04),
    DN(G_3,3,0x000),
    DN(___,0,0xC04),
    DN(F_4,10,0x000),
    DN(___,0,0xC04),
    DN(G_3,3,0x000),
    DN(___,0,0xC04),
    DN(G_3,9,0x000),
    DN(___,0,0xC04),
    DN(F_4,9,0x000),
    DN(___,0,0xC04),
    DN(B_3,10,0x000),
    DN(___,0,0xC04),
    DN(F_4,3,0x000),
    DN(___,0,0xC04),
    DN(C_4,9,0x000),
    DN(___,0,0xC04),
    DN(C_4,9,0x000),
    DN(___,0,0xC04),
    DN(G_4,10,0x000),
    DN(___,0,0xC04),
    DN(C_4,9,0x000),
    DN(___,0,0xC04),
    DN(C_4,3,0x000),
    DN(___,0,0xC04),
    DN(G_4,9,0x000),
    DN(___,0,0xC04),
    DN(C_4,10,0x000),
    DN(___,0,0xC04),
    DN(C_4,3,0x000),
    DN(___,0,0xC04),
};
static const unsigned char P5[] = {
    DN(G_4,0,0x000),
    DN(___,0,0x000),
    DN(C_5,0,0x000),
    DN(___,0,0x000),
    DN(G_4,0,0x000),
    DN(___,0,0x000),
    DN(D_5,0,0x000),
    DN(___,0,0x000),
    DN(Ds5,0,0x000),
    DN(___,0,0x000),
    DN(___,0,0x000),
    DN(___,0,0x000),
    DN(G_5,0,0x000),
    DN(___,0,0x000),
    DN(___,0,0x000),
    DN(___,0,0x000),
    DN(F_5,0,0x000),
    DN(___,0,0x000),
    DN(___,0,0x000),
    DN(___,0,0x000),
    DN(___,0,0x000),
    DN(___,0,0x000),
    DN(___,0,0x000),
    DN(___,0,0x000),
    DN(___,0,0x000),
    DN(___,0,0x000),
    DN(___,0,0x000),
    DN(___,0,0x000),
    DN(___,0,0x000),
    DN(___,0,0x000),
    DN(___,0,0x000),
    DN(___,0,0x000),
    DN(___,0,0x000),
    DN(___,0,0x000),
    DN(F_5,0,0x000),
    DN(___,0,0x000),
    DN(G_5,0,0x000),
    DN(___,0,0x000),
    DN(___,0,0x000),
    DN(___,0,0x000),
    DN(F_5,0,0x000),
    DN(___,0,0x000),
    DN(___,0,0x000),
    DN(___,0,0x000),
    DN(Ds5,0,0x000),
    DN(___,0,0x000),
    DN(D_5,0,0x000),
    DN(___,0,0x000),
    DN(C_5,0,0x000),
    DN(___,0,0x000),
    DN(___,0,0x000),
    DN(___,0,0x000),
    DN(___,0,0x000),
    DN(___,0,0x000),
    DN(___,0,0x000),
    DN(___,0,0x000),
    DN(___,0,0x000),
    DN(___,0,0x000),
    DN(___,0,0x000),
    DN(___,0,0x000),
    DN(___,0,0x000),
    DN(___,0,0x000),
    DN(___,0,0x000),
    DN(___,0,0x000),
};
static const unsigned char P6[] = {
    DN(C_6,3,0x000),
    DN(___,0,0x000),
    DN(G_5,3,0x000),
    DN(___,0,0x000),
    DN(D_6,3,0x000),
    DN(___,0,0x000),
    DN(Ds6,3,0x000),
    DN(___,0,0x000),
    DN(___,0,0xC04),
    DN(___,0,0x000),
    DN(G_6,3,0x000),
    DN(___,0,0x000),
    DN(___,0,0xC04),
    DN(___,0,0x000),
    DN(F_6,3,0x000),
    DN(___,0,0x482),
    DN(___,0,0x482),
    DN(___,0,0x482),
    DN(___,0,0x482),
    DN(___,0,0x482),
    DN(___,0,0x482),
    DN(___,0,0x482),
    DN(___,0,0x482),
    DN(___,0,0x482),
    DN(___,0,0xC04),
    DN(___,0,0x000),
    DN(___,0,0x000),
    DN(___,0,0x000),
    DN(___,0,0x000),
    DN(___,0,0x000),
    DN(___,0,0x000),
    DN(___,0,0x000),
    DN(F_6,4,0x000),
    DN(___,0,0x000),
    DN(G_6,4,0x000),
    DN(___,0,0x000),
    DN(___,0,0xC04),
    DN(___,0,0x000),
    DN(F_6,4,0x000),
    DN(___,0,0x000),
    DN(___,0,0xC04),
    DN(___,0,0x000),
    DN(Ds6,4,0x000),
    DN(___,0,0x000),
    DN(D_6,4,0x000),
    DN(___,0,0x000),
    DN(C_6,4,0x000),
    DN(___,0,0x482),
    DN(___,0,0x482),
    DN(___,0,0x482),
    DN(___,0,0x482),
    DN(___,0,0x482),
    DN(___,0,0x482),
    DN(___,0,0x482),
    DN(___,0,0x482),
    DN(___,0,0x482),
    DN(___,0,0xC04),
    DN(___,0,0x000),
    DN(___,0,0x000),
    DN(___,0,0x000),
    DN(___,0,0x000),
    DN(___,0,0x000),
    DN(___,0,0x000),
    DN(___,0,0x000),
};
static const unsigned char P7[] = {
    DN(C_8,1,0x000),
    DN(___,0,0x000),
    DN(C_8,3,0x000),
    DN(___,0,0x000),
    DN(C_8,2,0x000),
    DN(___,0,0x000),
    DN(C_8,3,0x000),
    DN(___,0,0x000),
    DN(C_8,1,0x000),
    DN(___,0,0x000),
    DN(C_8,1,0x000),
    DN(___,0,0x000),
    DN(C_8,2,0x000),
    DN(___,0,0x000),
    DN(C_8,3,0x000),
    DN(___,0,0x000),
    DN(C_8,1,0x000),
    DN(___,0,0x000),
    DN(C_8,1,0x000),
    DN(___,0,0x000),
    DN(C_8,2,0x000),
    DN(___,0,0x000),
    DN(C_8,1,0x000),
    DN(___,0,0x000),
    DN(C_8,3,0x000),
    DN(___,0,0x000),
    DN(C_8,1,0x000),
    DN(___,0,0x000),
    DN(C_8,2,0x000),
    DN(___,0,0x000),
    DN(C_8,3,0x000),
    DN(___,0,0x000),
    DN(C_8,1,0x000),
    DN(___,0,0x000),
    DN(C_8,3,0x000),
    DN(___,0,0x000),
    DN(C_8,2,0x000),
    DN(___,0,0x000),
    DN(C_8,3,0x000),
    DN(___,0,0x000),
    DN(C_8,1,0x000),
    DN(___,0,0x000),
    DN(C_8,1,0x000),
    DN(___,0,0x000),
    DN(C_8,2,0x000),
    DN(___,0,0x000),
    DN(C_8,3,0x000),
    DN(___,0,0x000),
    DN(C_8,1,0x000),
    DN(___,0,0x000),
    DN(C_8,1,0x000),
    DN(___,0,0x000),
    DN(C_8,2,0x000),
    DN(___,0,0x000),
    DN(C_8,1,0x000),
    DN(___,0,0x000),
    DN(C_8,3,0x000),
    DN(___,0,0x000),
    DN(C_8,1,0x000),
    DN(___,0,0x000),
    DN(C_8,2,0x000),
    DN(___,0,0x000),
    DN(C_8,2,0x000),
    DN(C_8,2,0x000),
};
static const unsigned char P8[] = {
    DN(C_6,3,0x000),
    DN(___,0,0x000),
    DN(G_5,3,0x000),
    DN(___,0,0x000),
    DN(D_6,3,0x000),
    DN(___,0,0x000),
    DN(Ds6,3,0x000),
    DN(___,0,0x000),
    DN(___,0,0xC04),
    DN(___,0,0x000),
    DN(G_6,3,0x000),
    DN(___,0,0x000),
    DN(___,0,0xC04),
    DN(___,0,0x000),
    DN(F_6,3,0x000),
    DN(___,0,0x482),
    DN(___,0,0x482),
    DN(___,0,0x482),
    DN(___,0,0x482),
    DN(___,0,0x482),
    DN(___,0,0x482),
    DN(___,0,0x482),
    DN(___,0,0x482),
    DN(___,0,0x482),
    DN(___,0,0xC04),
    DN(___,0,0x000),
    DN(___,0,0x000),
    DN(___,0,0x000),
    DN(___,0,0x000),
    DN(___,0,0x000),
    DN(___,0,0x000),
    DN(___,0,0x000),
    DN(F_6,4,0x000),
    DN(___,0,0x000),
    DN(G_6,4,0x000),
    DN(___,0,0x000),
    DN(D_6,4,0x000),
    DN(___,0,0x000),
    DN(Ds6,4,0x000),
    DN(___,0,0x000),
    DN(C_6,4,0x000),
    DN(___,0,0x000),
    DN(D_6,4,0x000),
    DN(___,0,0x000),
    DN(B_5,4,0x000),
    DN(___,0,0x000),
    DN(___,0,0xC04),
    DN(___,0,0x000),
    DN(C_6,4,0x000),
    DN(___,0,0x482),
    DN(___,0,0x482),
    DN(___,0,0x482),
    DN(___,0,0x482),
    DN(___,0,0x482),
    DN(___,0,0x482),
    DN(___,0,0x482),
    DN(___,0,0xC04),
    DN(___,0,0x000),
    DN(___,0,0x000),
    DN(___,0,0x000),
    DN(___,0,0x000),
    DN(___,0,0x000),
    DN(___,0,0x000),
    DN(___,0,0x000),
};
static const unsigned char P9[] = {
    DN(___,0,0x000),
    DN(___,0,0x000),
    DN(___,0,0x000),
    DN(___,0,0x000),
    DN(___,0,0x000),
    DN(___,0,0x000),
    DN(___,0,0x000),
    DN(___,0,0x000),
    DN(___,0,0x000),
    DN(___,0,0x000),
    DN(___,0,0x000),
    DN(___,0,0x000),
    DN(___,0,0x000),
    DN(___,0,0x000),
    DN(___,0,0x000),
    DN(___,0,0x000),
    DN(___,0,0x000),
    DN(___,0,0x000),
    DN(___,0,0x000),
    DN(___,0,0x000),
    DN(___,0,0x000),
    DN(___,0,0x000),
    DN(___,0,0x000),
    DN(___,0,0x000),
    DN(___,0,0x000),
    DN(___,0,0x000),
    DN(___,0,0x000),
    DN(___,0,0x000),
    DN(___,0,0x000),
    DN(___,0,0x000),
    DN(___,0,0x000),
    DN(___,0,0x000),
    DN(___,0,0x000),
    DN(___,0,0x000),
    DN(___,0,0x000),
    DN(___,0,0x000),
    DN(___,0,0x000),
    DN(___,0,0x000),
    DN(___,0,0x000),
    DN(___,0,0x000),
    DN(___,0,0x000),
    DN(___,0,0x000),
    DN(___,0,0x000),
    DN(___,0,0x000),
    DN(___,0,0x000),
    DN(___,0,0x000),
    DN(___,0,0x000),
    DN(___,0,0x000),
    DN(___,0,0x000),
    DN(___,0,0x000),
    DN(___,0,0x000),
    DN(___,0,0x000),
    DN(___,0,0x000),
    DN(___,0,0x000),
    DN(___,0,0x000),
    DN(___,0,0x000),
    DN(___,0,0x000),
    DN(___,0,0x000),
    DN(___,0,0x000),
    DN(___,0,0x000),
    DN(___,0,0x000),
    DN(___,0,0x000),
    DN(___,0,0x000),
    DN(___,0,0x000),
};
static const unsigned char P14[] = {
    DN(C_4,9,0x000),
    DN(___,0,0xC04),
    DN(C_4,3,0x000),
    DN(___,0,0xC04),
    DN(G_4,10,0x000),
    DN(___,0,0xC04),
    DN(C_4,3,0x000),
    DN(___,0,0xC04),
    DN(G_4,9,0x000),
    DN(___,0,0xC04),
    DN(C_4,9,0x000),
    DN(___,0,0xC04),
    DN(G_4,10,0x000),
    DN(___,0,0xC04),
    DN(G_4,3,0x000),
    DN(___,0,0xC04),
    DN(G_3,9,0x000),
    DN(___,0,0xC04),
    DN(G_3,9,0x000),
    DN(___,0,0xC04),
    DN(D_4,10,0x000),
    DN(___,0,0xC04),
    DN(G_3,9,0x000),
    DN(___,0,0xC04),
    DN(G_3,3,0x000),
    DN(___,0,0xC04),
    DN(D_4,9,0x000),
    DN(___,0,0xC04),
    DN(G_3,10,0x000),
    DN(___,0,0xC04),
    DN(D_4,3,0x000),
    DN(___,0,0xC04),
    DN(G_3,9,0x000),
    DN(___,0,0xC04),
    DN(G_3,3,0x000),
    DN(___,0,0xC04),
    DN(F_4,10,0x000),
    DN(___,0,0xC04),
    DN(G_3,3,0x000),
    DN(___,0,0xC04),
    DN(G_3,9,0x000),
    DN(___,0,0xC04),
    DN(F_4,9,0x000),
    DN(___,0,0xC04),
    DN(B_3,10,0x000),
    DN(___,0,0xC04),
    DN(F_4,3,0x000),
    DN(___,0,0xC04),
    DN(C_4,9,0x000),
    DN(___,0,0xC04),
    DN(C_4,9,0x000),
    DN(___,0,0xC04),
    DN(G_4,10,0x000),
    DN(___,0,0xC04),
    DN(C_4,9,0x000),
    DN(___,0,0xC04),
    DN(C_4,3,0x000),
    DN(___,0,0xC04),
    DN(G_4,9,0x000),
    DN(___,0,0xC04),
    DN(C_4,10,0x000),
    DN(___,0,0xC04),
    DN(C_4,10,0x000),
    DN(C_4,12,0x000),
};
static const unsigned char P15[] = {
    DN(C_4,9,0x000),
    DN(___,0,0xC04),
    DN(C_4,3,0x000),
    DN(___,0,0xC04),
    DN(G_4,10,0x000),
    DN(___,0,0xC04),
    DN(C_4,3,0x000),
    DN(___,0,0xC04),
    DN(C_4,9,0x000),
    DN(___,0,0xC04),
    DN(G_4,9,0x000),
    DN(___,0,0xC04),
    DN(C_4,10,0x000),
    DN(___,0,0xC04),
    DN(G_4,3,0x000),
    DN(___,0,0xC04),
    DN(Gs3,9,0x000),
    DN(___,0,0xC04),
    DN(Gs3,9,0x000),
    DN(___,0,0xC04),
    DN(Ds4,10,0x000),
    DN(___,0,0xC04),
    DN(Gs3,9,0x000),
    DN(___,0,0xC04),
    DN(Gs3,3,0x000),
    DN(___,0,0xC04),
    DN(Ds4,9,0x000),
    DN(___,0,0xC04),
    DN(Gs3,10,0x000),
    DN(___,0,0xC04),
    DN(Ds4,3,0x000),
    DN(___,0,0xC04),
    DN(As3,9,0x000),
    DN(___,0,0xC04),
    DN(As3,3,0x000),
    DN(___,0,0xC04),
    DN(F_4,10,0x000),
    DN(___,0,0xC04),
    DN(As3,3,0x000),
    DN(___,0,0xC04),
    DN(As3,9,0x000),
    DN(___,0,0xC04),
    DN(F_4,9,0x000),
    DN(___,0,0xC04),
    DN(As3,10,0x000),
    DN(___,0,0xC04),
    DN(F_4,3,0x000),
    DN(___,0,0xC04),
    DN(G_3,9,0x000),
    DN(___,0,0xC04),
    DN(G_3,9,0x000),
    DN(___,0,0xC04),
    DN(D_4,10,0x000),
    DN(___,0,0xC04),
    DN(G_3,9,0x000),
    DN(___,0,0xC04),
    DN(G_3,3,0x000),
    DN(___,0,0xC04),
    DN(D_4,9,0x000),
    DN(___,0,0xC04),
    DN(B_3,10,0x000),
    DN(___,0,0xC04),
    DN(F_4,3,0x000),
    DN(___,0,0xC04),
};
static const unsigned char P16[] = {
    DN(C_6,3,0x000),
    DN(B_5,3,0xC04),
    DN(Ds6,3,0x000),
    DN(C_6,3,0xC04),
    DN(G_6,3,0x000),
    DN(Ds6,3,0xC04),
    DN(C_6,3,0x000),
    DN(G_6,3,0xC04),
    DN(Ds6,3,0x000),
    DN(C_6,3,0xC04),
    DN(G_6,3,0x000),
    DN(Ds6,3,0xC04),
    DN(C_6,3,0x000),
    DN(G_6,3,0xC04),
    DN(Ds6,3,0x000),
    DN(C_6,3,0xC04),
    DN(Gs5,3,0x000),
    DN(Ds6,3,0xC04),
    DN(C_6,3,0x000),
    DN(Gs5,3,0xC04),
    DN(Ds6,3,0x000),
    DN(C_6,3,0xC04),
    DN(Gs5,3,0x000),
    DN(Ds6,3,0xC04),
    DN(C_6,3,0x000),
    DN(Gs5,3,0xC04),
    DN(Ds6,3,0x000),
    DN(C_6,3,0xC04),
    DN(Gs5,3,0x000),
    DN(Ds6,3,0xC04),
    DN(C_6,3,0x000),
    DN(Gs5,3,0xC04),
    DN(As5,3,0x000),
    DN(C_6,3,0xC04),
    DN(D_6,3,0x000),
    DN(As5,3,0xC04),
    DN(F_6,3,0x000),
    DN(D_6,3,0xC04),
    DN(As5,3,0x000),
    DN(F_6,3,0xC04),
    DN(D_6,3,0x000),
    DN(As5,3,0xC04),
    DN(F_6,3,0x000),
    DN(D_6,3,0xC04),
    DN(As5,3,0x000),
    DN(F_6,3,0xC04),
    DN(D_6,3,0x000),
    DN(As5,3,0xC04),
    DN(G_5,3,0x000),
    DN(D_6,3,0xC04),
    DN(B_5,3,0x000),
    DN(G_5,3,0xC04),
    DN(D_6,3,0x000),
    DN(B_5,3,0xC04),
    DN(G_5,3,0x000),
    DN(D_6,3,0xC04),
    DN(B_5,3,0x000),
    DN(G_5,3,0xC04),
    DN(D_6,3,0x000),
    DN(B_5,3,0xC04),
    DN(G_5,3,0x000),
    DN(D_6,3,0xC04),
    DN(B_5,3,0x000),
    DN(G_5,3,0xC04),
};
static const unsigned char P17[] = {
    DN(C_6,5,0x8FF),
    DN(___,0,0x000),
    DN(___,0,0xC04),
    DN(___,0,0x000),
    DN(C_6,5,0x000),
    DN(___,0,0x000),
    DN(___,0,0xC04),
    DN(___,0,0x000),
    DN(D_6,5,0x000),
    DN(___,0,0x000),
    DN(___,0,0xC04),
    DN(___,0,0x000),
    DN(Ds6,5,0x000),
    DN(___,0,0x000),
    DN(___,0,0xC04),
    DN(___,0,0x000),
    DN(F_6,5,0x000),
    DN(___,0,0x000),
    DN(___,0,0xC04),
    DN(___,0,0x000),
    DN(F_6,5,0x000),
    DN(___,0,0x000),
    DN(___,0,0xC04),
    DN(___,0,0x000),
    DN(Ds6,5,0x000),
    DN(___,0,0x000),
    DN(___,0,0xC04),
    DN(___,0,0x000),
    DN(D_6,5,0x000),
    DN(___,0,0x000),
    DN(___,0,0xC04),
    DN(___,0,0x000),
    DN(F_6,5,0x000),
    DN(___,0,0x000),
    DN(___,0,0x000),
    DN(___,0,0x000),
    DN(Ds6,5,0x000),
    DN(___,0,0xC04),
    DN(D_6,5,0x000),
    DN(___,0,0x000),
    DN(___,0,0x000),
    DN(___,0,0x000),
    DN(Ds6,5,0x000),
    DN(___,0,0xC04),
    DN(D_6,5,0x000),
    DN(___,0,0xC04),
    DN(C_6,5,0x000),
    DN(___,0,0xC04),
    DN(B_5,5,0x482),
    DN(___,0,0x482),
    DN(___,0,0x482),
    DN(___,0,0x482),
    DN(___,0,0x482),
    DN(___,0,0x482),
    DN(___,0,0xC04),
    DN(___,0,0x482),
    DN(D_6,5,0x482),
    DN(___,0,0x482),
    DN(___,0,0x482),
    DN(___,0,0x482),
    DN(___,0,0x482),
    DN(___,0,0x482),
    DN(___,0,0xC04),
    DN(___,0,0x482),
};
static const unsigned char P19[] = {
    DN(C_6,5,0x000),
    DN(___,0,0x000),
    DN(___,0,0xC04),
    DN(___,0,0x000),
    DN(C_6,5,0x000),
    DN(___,0,0x000),
    DN(___,0,0xC04),
    DN(___,0,0x000),
    DN(D_6,5,0x000),
    DN(___,0,0x000),
    DN(___,0,0xC04),
    DN(___,0,0x000),
    DN(Ds6,5,0x000),
    DN(___,0,0x000),
    DN(___,0,0xC04),
    DN(___,0,0x000),
    DN(F_6,5,0x000),
    DN(___,0,0x000),
    DN(___,0,0xC04),
    DN(___,0,0x000),
    DN(F_6,5,0x000),
    DN(___,0,0x000),
    DN(___,0,0xC04),
    DN(___,0,0x000),
    DN(Ds6,5,0x000),
    DN(___,0,0x000),
    DN(___,0,0xC04),
    DN(___,0,0x000),
    DN(D_6,5,0x000),
    DN(___,0,0x000),
    DN(___,0,0xC04),
    DN(___,0,0x000),
    DN(F_6,5,0x000),
    DN(___,0,0x000),
    DN(___,0,0x000),
    DN(___,0,0x000),
    DN(Ds6,5,0x000),
    DN(___,0,0xC04),
    DN(D_6,5,0x000),
    DN(___,0,0x000),
    DN(___,0,0x000),
    DN(___,0,0x000),
    DN(C_6,5,0x000),
    DN(___,0,0xC04),
    DN(D_6,5,0x000),
    DN(___,0,0xC04),
    DN(C_6,5,0x000),
    DN(___,0,0xC04),
    DN(Ds6,5,0x482),
    DN(___,0,0x482),
    DN(___,0,0x482),
    DN(___,0,0x482),
    DN(___,0,0x482),
    DN(___,0,0x482),
    DN(___,0,0xC04),
    DN(___,0,0x482),
    DN(___,0,0x482),
    DN(___,0,0x482),
    DN(___,0,0x482),
    DN(___,0,0x482),
    DN(___,0,0x482),
    DN(___,0,0x482),
    DN(___,0,0x482),
    DN(___,0,0x482),
};
static const unsigned char P20[] = {
    DN(C_4,9,0x000),
    DN(___,0,0xC04),
    DN(C_4,3,0x000),
    DN(___,0,0xC04),
    DN(G_4,10,0x000),
    DN(___,0,0xC04),
    DN(C_4,3,0x000),
    DN(___,0,0xC04),
    DN(C_4,9,0x000),
    DN(___,0,0xC04),
    DN(G_4,9,0x000),
    DN(___,0,0xC04),
    DN(C_4,10,0x000),
    DN(___,0,0xC04),
    DN(G_4,3,0x000),
    DN(___,0,0xC04),
    DN(Gs3,9,0x000),
    DN(___,0,0xC04),
    DN(Gs3,9,0x000),
    DN(___,0,0xC04),
    DN(Ds4,10,0x000),
    DN(___,0,0xC04),
    DN(Gs3,9,0x000),
    DN(___,0,0xC04),
    DN(Gs3,3,0x000),
    DN(___,0,0xC04),
    DN(Ds4,9,0x000),
    DN(___,0,0xC04),
    DN(Gs3,10,0x000),
    DN(___,0,0xC04),
    DN(Ds4,3,0x000),
    DN(___,0,0xC04),
    DN(As3,9,0x000),
    DN(___,0,0xC04),
    DN(As3,3,0x000),
    DN(___,0,0xC04),
    DN(F_4,10,0x000),
    DN(___,0,0xC04),
    DN(As3,3,0x000),
    DN(___,0,0xC04),
    DN(As3,9,0x000),
    DN(___,0,0xC04),
    DN(F_4,9,0x000),
    DN(___,0,0xC04),
    DN(As3,10,0x000),
    DN(___,0,0xC04),
    DN(F_4,3,0x000),
    DN(___,0,0xC04),
    DN(G_3,9,0x000),
    DN(___,0,0xC04),
    DN(G_3,9,0x000),
    DN(___,0,0xC04),
    DN(D_4,10,0x000),
    DN(___,0,0xC04),
    DN(G_3,9,0x000),
    DN(___,0,0xC04),
    DN(G_3,3,0x000),
    DN(___,0,0xC04),
    DN(D_4,9,0x000),
    DN(___,0,0xC04),
    DN(G_3,10,0x000),
    DN(___,0,0xC04),
    DN(D_4,3,0x000),
    DN(___,0,0xC04),
};
static const unsigned char P21[] = {
    DN(Ds6,5,0x000),
    DN(___,0,0x000),
    DN(___,0,0xC04),
    DN(___,0,0x000),
    DN(Ds6,5,0x000),
    DN(___,0,0x000),
    DN(___,0,0xC04),
    DN(___,0,0x000),
    DN(F_6,5,0x000),
    DN(___,0,0x000),
    DN(___,0,0xC04),
    DN(___,0,0x000),
    DN(G_6,5,0x000),
    DN(___,0,0x000),
    DN(___,0,0xC04),
    DN(___,0,0x000),
    DN(As5,5,0x000),
    DN(___,0,0x000),
    DN(___,0,0xC04),
    DN(___,0,0x000),
    DN(As5,5,0x000),
    DN(___,0,0x000),
    DN(___,0,0xC04),
    DN(___,0,0x000),
    DN(G_6,5,0x000),
    DN(___,0,0x000),
    DN(___,0,0xC04),
    DN(___,0,0x000),
    DN(F_6,5,0x000),
    DN(___,0,0x000),
    DN(___,0,0xC04),
    DN(___,0,0x000),
    DN(F_6,5,0x000),
    DN(___,0,0x000),
    DN(___,0,0x000),
    DN(___,0,0x000),
    DN(Ds6,5,0x000),
    DN(___,0,0xC04),
    DN(D_6,5,0x000),
    DN(___,0,0x000),
    DN(___,0,0x000),
    DN(___,0,0x000),
    DN(C_6,5,0x000),
    DN(___,0,0xC04),
    DN(D_6,5,0x000),
    DN(___,0,0xC04),
    DN(Ds6,5,0x000),
    DN(___,0,0xC04),
    DN(D_6,5,0x482),
    DN(___,0,0x482),
    DN(___,0,0x482),
    DN(___,0,0x482),
    DN(___,0,0x482),
    DN(___,0,0x482),
    DN(___,0,0x482),
    DN(___,0,0x482),
    DN(___,0,0x482),
    DN(___,0,0x482),
    DN(___,0,0x482),
    DN(___,0,0x482),
    DN(___,0,0x482),
    DN(___,0,0x482),
    DN(___,0,0xC04),
    DN(___,0,0x482),
};
static const unsigned char P22[] = {
    DN(Gs3,9,0x000),
    DN(___,0,0xC04),
    DN(Gs3,3,0x000),
    DN(___,0,0xC04),
    DN(Ds4,10,0x000),
    DN(___,0,0xC04),
    DN(Gs3,3,0x000),
    DN(___,0,0xC04),
    DN(Gs3,9,0x000),
    DN(___,0,0xC04),
    DN(Ds4,9,0x000),
    DN(___,0,0xC04),
    DN(Gs3,10,0x000),
    DN(___,0,0xC04),
    DN(Ds4,3,0x000),
    DN(___,0,0xC04),
    DN(F_3,9,0x000),
    DN(___,0,0xC04),
    DN(F_3,9,0x000),
    DN(___,0,0xC04),
    DN(C_4,10,0x000),
    DN(___,0,0xC04),
    DN(F_3,9,0x000),
    DN(___,0,0xC04),
    DN(F_3,3,0x000),
    DN(___,0,0xC04),
    DN(C_4,9,0x000),
    DN(___,0,0xC04),
    DN(F_3,10,0x000),
    DN(___,0,0xC04),
    DN(C_4,3,0x000),
    DN(___,0,0xC04),
    DN(G_3,9,0x000),
    DN(___,0,0xC04),
    DN(G_3,3,0x000),
    DN(___,0,0xC04),
    DN(D_4,10,0x000),
    DN(___,0,0xC04),
    DN(G_3,3,0x000),
    DN(___,0,0xC04),
    DN(G_3,9,0x000),
    DN(___,0,0xC04),
    DN(D_4,9,0x000),
    DN(___,0,0xC04),
    DN(G_3,10,0x000),
    DN(___,0,0xC04),
    DN(D_4,3,0x000),
    DN(___,0,0xC04),
    DN(B_3,10,0x000),
    DN(___,0,0xC04),
    DN(B_3,9,0x000),
    DN(___,0,0xC04),
    DN(F_4,10,0x000),
    DN(___,0,0xC04),
    DN(B_3,9,0x000),
    DN(___,0,0xC04),
    DN(B_3,10,0x000),
    DN(___,0,0xC04),
    DN(F_4,9,0x000),
    DN(___,0,0xC04),
    DN(B_3,10,0x000),
    DN(___,0,0xC04),
    DN(F_4,10,0x000),
    DN(___,0,0xC04),
};
static const unsigned char P23[] = {
    DN(C_6,5,0x000),
    DN(___,0,0x000),
    DN(___,0,0xC04),
    DN(___,0,0x000),
    DN(C_6,5,0x000),
    DN(___,0,0x000),
    DN(___,0,0xC04),
    DN(___,0,0x000),
    DN(Ds6,5,0x000),
    DN(___,0,0x000),
    DN(___,0,0xC04),
    DN(___,0,0x000),
    DN(F_6,5,0x000),
    DN(___,0,0x000),
    DN(___,0,0xC04),
    DN(___,0,0x000),
    DN(G_6,5,0x000),
    DN(___,0,0x000),
    DN(___,0,0xC04),
    DN(___,0,0x000),
    DN(G_6,5,0x000),
    DN(___,0,0x000),
    DN(___,0,0xC04),
    DN(___,0,0x000),
    DN(F_6,5,0x000),
    DN(___,0,0x000),
    DN(___,0,0xC04),
    DN(___,0,0x000),
    DN(Ds6,5,0x000),
    DN(___,0,0x000),
    DN(___,0,0xC04),
    DN(___,0,0x000),
    DN(D_6,5,0x482),
    DN(___,0,0x482),
    DN(___,0,0x482),
    DN(___,0,0x482),
    DN(___,0,0x482),
    DN(___,0,0x482),
    DN(___,0,0x482),
    DN(___,0,0x482),
    DN(___,0,0x482),
    DN(___,0,0x482),
    DN(___,0,0x482),
    DN(___,0,0x482),
    DN(___,0,0xC04),
    DN(___,0,0x482),
    DN(___,0,0x482),
    DN(___,0,0x482),
    DN(G_6,5,0x482),
    DN(___,0,0x482),
    DN(___,0,0x482),
    DN(___,0,0x482),
    DN(___,0,0x482),
    DN(___,0,0x482),
    DN(___,0,0x482),
    DN(___,0,0x482),
    DN(B_6,5,0x304),
    DN(___,0,0x304),
    DN(___,0,0x304),
    DN(___,0,0x304),
    DN(___,0,0x482),
    DN(___,0,0x482),
    DN(___,0,0x482),
    DN(___,0,0x482),
};
static const unsigned char P24[] = {
    DN(G_4,0,0x000),
    DN(___,0,0x000),
    DN(C_5,0,0x000),
    DN(___,0,0x000),
    DN(G_4,0,0x000),
    DN(___,0,0x000),
    DN(D_5,0,0x000),
    DN(___,0,0x000),
    DN(Ds5,0,0x000),
    DN(___,0,0x000),
    DN(___,0,0x000),
    DN(___,0,0x000),
    DN(G_5,0,0x000),
    DN(___,0,0x000),
    DN(___,0,0x000),
    DN(___,0,0x000),
    DN(F_5,0,0x000),
    DN(___,0,0x000),
    DN(___,0,0x000),
    DN(___,0,0x000),
    DN(___,0,0x000),
    DN(___,0,0x000),
    DN(___,0,0x000),
    DN(___,0,0x000),
    DN(___,0,0x000),
    DN(___,0,0x000),
    DN(___,0,0x000),
    DN(___,0,0x000),
    DN(___,0,0x000),
    DN(___,0,0x000),
    DN(___,0,0x000),
    DN(___,0,0x000),
    DN(___,0,0x000),
    DN(___,0,0x000),
    DN(F_5,0,0x000),
    DN(___,0,0x000),
    DN(G_5,0,0x000),
    DN(___,0,0x000),
    DN(D_5,0,0x000),
    DN(___,0,0x000),
    DN(Ds5,0,0x000),
    DN(___,0,0x000),
    DN(C_5,0,0x000),
    DN(___,0,0x000),
    DN(D_5,0,0x000),
    DN(___,0,0x000),
    DN(B_4,0,0x000),
    DN(___,0,0x000),
    DN(___,0,0x000),
    DN(___,0,0x000),
    DN(C_5,0,0x000),
    DN(___,0,0x000),
    DN(___,0,0x000),
    DN(___,0,0x000),
    DN(___,0,0x000),
    DN(___,0,0x000),
    DN(___,0,0x000),
    DN(___,0,0x000),
    DN(___,0,0x000),
    DN(___,0,0x000),
    DN(___,0,0x000),
    DN(___,0,0x000),
    DN(___,0,0x000),
    DN(___,0,0x000),
};
static const unsigned char P25[] = {
    DN(C_8,1,0x000),
    DN(___,0,0x000),
    DN(C_8,3,0x000),
    DN(___,0,0x000),
    DN(C_8,2,0x000),
    DN(___,0,0x000),
    DN(C_8,3,0x000),
    DN(___,0,0x000),
    DN(C_8,1,0x000),
    DN(___,0,0x000),
    DN(C_8,1,0x000),
    DN(___,0,0x000),
    DN(C_8,2,0x000),
    DN(___,0,0x000),
    DN(C_8,3,0x000),
    DN(___,0,0x000),
    DN(C_8,1,0x000),
    DN(___,0,0x000),
    DN(C_8,1,0x000),
    DN(___,0,0x000),
    DN(C_8,2,0x000),
    DN(___,0,0x000),
    DN(C_8,1,0x000),
    DN(___,0,0x000),
    DN(C_8,3,0x000),
    DN(___,0,0x000),
    DN(C_8,1,0x000),
    DN(___,0,0x000),
    DN(C_8,2,0x000),
    DN(___,0,0x000),
    DN(C_8,3,0x000),
    DN(___,0,0x000),
    DN(C_8,1,0x000),
    DN(___,0,0x000),
    DN(C_8,3,0x000),
    DN(___,0,0x000),
    DN(C_8,2,0x000),
    DN(___,0,0x000),
    DN(C_8,3,0x000),
    DN(___,0,0x000),
    DN(C_8,1,0x000),
    DN(___,0,0x000),
    DN(C_8,1,0x000),
    DN(___,0,0x000),
    DN(C_8,2,0x000),
    DN(___,0,0x000),
    DN(C_8,3,0x000),
    DN(___,0,0x000),
    DN(C_8,2,0x000),
    DN(___,0,0x000),
    DN(C_8,1,0x000),
    DN(___,0,0x000),
    DN(C_8,2,0x000),
    DN(___,0,0x000),
    DN(C_8,1,0x000),
    DN(___,0,0x000),
    DN(C_8,2,0x000),
    DN(___,0,0x000),
    DN(C_8,1,0x000),
    DN(___,0,0x000),
    DN(C_8,2,0x000),
    DN(___,0,0x000),
    DN(C_8,2,0x000),
    DN(___,0,0xB03),
};
static const unsigned char P26[] = {
    DN(Gs5,3,0x000),
    DN(B_5,3,0xC04),
    DN(C_6,3,0x000),
    DN(Gs5,3,0xC04),
    DN(Ds6,3,0x000),
    DN(C_6,3,0xC04),
    DN(Gs5,3,0x000),
    DN(Ds6,3,0xC04),
    DN(C_6,3,0x000),
    DN(Gs5,3,0xC04),
    DN(Ds6,3,0x000),
    DN(C_6,3,0xC04),
    DN(Gs5,3,0x000),
    DN(Ds6,3,0xC04),
    DN(C_6,3,0x000),
    DN(Gs5,3,0xC04),
    DN(F_5,3,0x000),
    DN(C_6,3,0xC04),
    DN(Gs5,3,0x000),
    DN(F_5,3,0xC04),
    DN(C_6,3,0x000),
    DN(Gs5,3,0xC04),
    DN(F_5,3,0x000),
    DN(C_6,3,0xC04),
    DN(Gs5,3,0x000),
    DN(F_5,3,0xC04),
    DN(C_6,3,0x000),
    DN(Gs5,3,0xC04),
    DN(F_5,3,0x000),
    DN(C_6,3,0xC04),
    DN(Gs5,3,0x000),
    DN(F_5,3,0xC04),
    DN(G_5,3,0x000),
    DN(Gs5,3,0xC04),
    DN(B_5,3,0x000),
    DN(G_5,3,0xC04),
    DN(D_6,3,0x000),
    DN(B_5,3,0xC04),
    DN(G_5,3,0x000),
    DN(D_6,3,0xC04),
    DN(B_5,3,0x000),
    DN(G_5,3,0xC04),
    DN(D_6,3,0x000),
    DN(B_5,3,0xC04),
    DN(G_5,3,0x000),
    DN(D_6,3,0xC04),
    DN(B_5,3,0x000),
    DN(G_5,3,0xC04),
    DN(D_6,3,0x000),
    DN(B_5,3,0xC04),
    DN(G_5,3,0x000),
    DN(D_6,3,0xC04),
    DN(B_5,3,0x000),
    DN(G_5,3,0xC04),
    DN(D_6,3,0x000),
    DN(B_5,3,0xC04),
    DN(G_5,3,0x000),
    DN(D_6,3,0xC04),
    DN(B_5,3,0x000),
    DN(G_5,3,0xC04),
    DN(D_6,3,0x000),
    DN(B_5,3,0xC04),
    DN(G_5,3,0x000),
    DN(D_6,3,0xC04),
};
static const unsigned char P27[] = {
    DN(C_8,4,0x000),
    DN(___,0,0x000),
    DN(___,0,0x000),
    DN(___,0,0x000),
    DN(C_8,2,0x000),
    DN(___,0,0x000),
    DN(C_8,3,0x000),
    DN(___,0,0x000),
    DN(C_8,1,0x000),
    DN(___,0,0x000),
    DN(C_8,1,0x000),
    DN(___,0,0x000),
    DN(C_8,2,0x000),
    DN(___,0,0x000),
    DN(C_8,3,0x000),
    DN(___,0,0x000),
    DN(C_8,1,0x000),
    DN(___,0,0x000),
    DN(C_8,1,0x000),
    DN(___,0,0x000),
    DN(C_8,2,0x000),
    DN(___,0,0x000),
    DN(C_8,1,0x000),
    DN(___,0,0x000),
    DN(C_8,3,0x000),
    DN(___,0,0x000),
    DN(C_8,1,0x000),
    DN(___,0,0x000),
    DN(C_8,2,0x000),
    DN(___,0,0x000),
    DN(C_8,3,0x000),
    DN(___,0,0x000),
    DN(C_8,1,0x000),
    DN(___,0,0x000),
    DN(C_8,3,0x000),
    DN(___,0,0x000),
    DN(C_8,2,0x000),
    DN(___,0,0x000),
    DN(C_8,3,0x000),
    DN(___,0,0x000),
    DN(C_8,1,0x000),
    DN(___,0,0x000),
    DN(C_8,1,0x000),
    DN(___,0,0x000),
    DN(C_8,2,0x000),
    DN(___,0,0x000),
    DN(C_8,3,0x000),
    DN(___,0,0x000),
    DN(C_8,1,0x000),
    DN(___,0,0x000),
    DN(C_8,1,0x000),
    DN(___,0,0x000),
    DN(C_8,2,0x000),
    DN(___,0,0x000),
    DN(C_8,1,0x000),
    DN(___,0,0x000),
    DN(C_8,3,0x000),
    DN(___,0,0x000),
    DN(C_8,1,0x000),
    DN(___,0,0x000),
    DN(C_8,2,0x000),
    DN(___,0,0x000),
    DN(C_8,3,0x000),
    DN(___,0,0x000),
};
static const unsigned char P28[] = {
    DN(C_4,3,0x000),
    DN(___,0,0xC04),
    DN(C_4,3,0x000),
    DN(___,0,0xC04),
    DN(C_4,3,0x000),
    DN(___,0,0xC04),
    DN(C_4,3,0x000),
    DN(___,0,0xC04),
    DN(C_4,3,0x000),
    DN(___,0,0xC04),
    DN(C_4,3,0x000),
    DN(___,0,0xC04),
    DN(C_4,3,0x000),
    DN(___,0,0xC04),
    DN(C_4,3,0x000),
    DN(___,0,0xC04),
    DN(G_3,3,0x000),
    DN(___,0,0xC04),
    DN(G_3,3,0x000),
    DN(___,0,0xC04),
    DN(G_3,3,0x000),
    DN(___,0,0xC04),
    DN(G_3,3,0x000),
    DN(___,0,0xC04),
    DN(G_3,3,0x000),
    DN(___,0,0xC04),
    DN(G_3,3,0x000),
    DN(___,0,0xC04),
    DN(G_3,3,0x000),
    DN(___,0,0xC04),
    DN(G_3,3,0x000),
    DN(___,0,0xC04),
    DN(G_3,3,0x000),
    DN(___,0,0xC04),
    DN(G_3,3,0x000),
    DN(___,0,0xC04),
    DN(G_3,3,0x000),
    DN(___,0,0xC04),
    DN(G_3,3,0x000),
    DN(___,0,0xC04),
    DN(G_3,3,0x000),
    DN(___,0,0xC04),
    DN(G_3,3,0x000),
    DN(___,0,0xC04),
    DN(G_3,3,0x000),
    DN(___,0,0xC04),
    DN(G_3,3,0x000),
    DN(___,0,0xC04),
    DN(C_4,10,0x000),
    DN(___,0,0xC04),
    DN(C_4,3,0x000),
    DN(___,0,0xC04),
    DN(C_4,3,0x000),
    DN(___,0,0xC04),
    DN(C_4,3,0x000),
    DN(___,0,0xC04),
    DN(C_4,3,0x000),
    DN(___,0,0xC04),
    DN(C_4,3,0x000),
    DN(___,0,0xC04),
    DN(C_4,10,0x000),
    DN(___,0,0xC04),
    DN(C_4,3,0x000),
    DN(___,0,0xC04),
};
static const unsigned char P30[] = {
    DN(C_6,4,0x000),
    DN(___,0,0xC04),
    DN(Ds6,4,0x000),
    DN(C_6,4,0xC04),
    DN(G_6,4,0x000),
    DN(Ds6,4,0xC04),
    DN(C_6,4,0x000),
    DN(G_6,4,0xC04),
    DN(Ds6,4,0x000),
    DN(C_6,4,0xC04),
    DN(G_6,4,0x000),
    DN(Ds6,4,0xC04),
    DN(C_6,4,0x000),
    DN(G_6,4,0xC04),
    DN(Ds6,4,0x000),
    DN(C_6,4,0xC04),
    DN(B_5,4,0x000),
    DN(Ds6,4,0xC04),
    DN(D_6,4,0x000),
    DN(B_5,4,0xC04),
    DN(F_6,4,0x000),
    DN(D_6,4,0xC04),
    DN(B_5,4,0x000),
    DN(F_6,4,0xC04),
    DN(D_6,4,0x000),
    DN(B_5,4,0xC04),
    DN(F_6,4,0x000),
    DN(D_6,4,0xC04),
    DN(B_5,4,0x000),
    DN(F_6,4,0xC04),
    DN(D_6,4,0x000),
    DN(B_5,4,0xC04),
    DN(B_5,4,0x000),
    DN(D_6,4,0xC04),
    DN(D_6,4,0x000),
    DN(B_5,4,0xC04),
    DN(F_6,4,0x000),
    DN(D_6,4,0xC04),
    DN(B_5,4,0x000),
    DN(F_6,4,0xC04),
    DN(D_6,4,0x000),
    DN(B_5,4,0xC04),
    DN(F_6,4,0x000),
    DN(D_6,4,0xC04),
    DN(B_5,4,0x000),
    DN(F_6,4,0xC04),
    DN(D_6,4,0x000),
    DN(B_5,4,0xC04),
    DN(C_6,4,0x000),
    DN(D_6,4,0xC04),
    DN(Ds6,4,0x000),
    DN(C_6,4,0xC04),
    DN(G_6,4,0x000),
    DN(Ds6,4,0xC04),
    DN(C_6,4,0x000),
    DN(G_6,4,0xC04),
    DN(Ds6,4,0x000),
    DN(C_6,4,0xC04),
    DN(G_6,4,0x000),
    DN(Ds6,4,0xC04),
    DN(C_6,4,0x000),
    DN(G_6,4,0xC04),
    DN(Ds6,4,0x000),
    DN(C_6,4,0xC04),
};
static const unsigned char P31[] = {
    DN(C_8,3,0x000),
    DN(___,0,0x000),
    DN(___,0,0x000),
    DN(___,0,0x000),
    DN(C_8,3,0x000),
    DN(___,0,0x000),
    DN(___,0,0x000),
    DN(___,0,0x000),
    DN(C_8,3,0x000),
    DN(___,0,0x000),
    DN(___,0,0x000),
    DN(___,0,0x000),
    DN(C_8,3,0x000),
    DN(___,0,0x000),
    DN(___,0,0x000),
    DN(___,0,0x000),
    DN(C_8,3,0x000),
    DN(___,0,0x000),
    DN(___,0,0x000),
    DN(___,0,0x000),
    DN(C_8,3,0x000),
    DN(___,0,0x000),
    DN(___,0,0x000),
    DN(___,0,0x000),
    DN(C_8,3,0x000),
    DN(___,0,0x000),
    DN(___,0,0x000),
    DN(___,0,0x000),
    DN(C_8,3,0x000),
    DN(___,0,0x000),
    DN(___,0,0x000),
    DN(___,0,0x000),
    DN(C_8,3,0x000),
    DN(___,0,0x000),
    DN(___,0,0x000),
    DN(___,0,0x000),
    DN(C_8,3,0x000),
    DN(___,0,0x000),
    DN(___,0,0x000),
    DN(___,0,0x000),
    DN(C_8,3,0x000),
    DN(___,0,0x000),
    DN(___,0,0x000),
    DN(___,0,0x000),
    DN(C_8,3,0x000),
    DN(___,0,0x000),
    DN(___,0,0x000),
    DN(___,0,0x000),
    DN(C_8,3,0x000),
    DN(___,0,0x000),
    DN(___,0,0x000),
    DN(___,0,0x000),
    DN(C_8,3,0x000),
    DN(___,0,0x000),
    DN(___,0,0x000),
    DN(___,0,0x000),
    DN(C_8,3,0x000),
    DN(___,0,0x000),
    DN(___,0,0x000),
    DN(___,0,0x000),
    DN(C_8,3,0x000),
    DN(___,0,0x000),
    DN(C_8,3,0x000),
    DN(___,0,0x000),
};
static const unsigned char P33[] = {
    DN(C_8,3,0x000),
    DN(___,0,0x000),
    DN(___,0,0x000),
    DN(___,0,0x000),
    DN(C_8,3,0x000),
    DN(___,0,0x000),
    DN(___,0,0x000),
    DN(___,0,0x000),
    DN(C_8,3,0x000),
    DN(___,0,0x000),
    DN(___,0,0x000),
    DN(___,0,0x000),
    DN(C_8,3,0x000),
    DN(___,0,0x000),
    DN(___,0,0x000),
    DN(___,0,0x000),
    DN(C_8,3,0x000),
    DN(___,0,0x000),
    DN(___,0,0x000),
    DN(___,0,0x000),
    DN(C_8,3,0x000),
    DN(___,0,0x000),
    DN(___,0,0x000),
    DN(___,0,0x000),
    DN(C_8,3,0x000),
    DN(___,0,0x000),
    DN(___,0,0x000),
    DN(___,0,0x000),
    DN(C_8,3,0x000),
    DN(___,0,0x000),
    DN(___,0,0x000),
    DN(___,0,0x000),
    DN(C_8,3,0x000),
    DN(___,0,0x000),
    DN(___,0,0x000),
    DN(___,0,0x000),
    DN(C_8,3,0x000),
    DN(___,0,0x000),
    DN(___,0,0x000),
    DN(___,0,0x000),
    DN(C_8,3,0x000),
    DN(___,0,0x000),
    DN(___,0,0x000),
    DN(___,0,0x000),
    DN(C_8,3,0x000),
    DN(___,0,0x000),
    DN(___,0,0x000),
    DN(___,0,0x000),
    DN(C_8,2,0x000),
    DN(___,0,0x000),
    DN(___,0,0x000),
    DN(___,0,0x000),
    DN(___,0,0x000),
    DN(___,0,0x000),
    DN(___,0,0x000),
    DN(___,0,0x000),
    DN(___,0,0x000),
    DN(___,0,0x000),
    DN(___,0,0x000),
    DN(___,0,0x000),
    DN(C_8,2,0x000),
    DN(___,0,0x000),
    DN(C_8,3,0x000),
    DN(C_8,3,0x000),
};

static const unsigned char itSquareSP9[] = {
    DN(31,0,0x000),
    DN(24,0,0x000),
    DN(13,0,0x000),
    DN(36,0,0x000),
    DN(___,0,0x000),
    DN(___,4,0x000),
    DN(___,0,0x000),
    DN(___,0,0x000),
    DN(___,0,0x000),
    DN(___,0,0x000),
    DN(___,0,0x000),
    DN(___,0,0x000),
    DN(___,0,0x000),
    DN(___,0,0x000),
    DN(___,0,0x000),
    DN(___,0,0x000),
    DN(___,0,0x000),
    DN(___,0,0x000),
    DN(___,0,0x000),
    DN(___,0,0x000),
    DN(___,0,0x000),
    DN(___,0,0x000),
    DN(___,0,0x000),
    DN(___,0,0x000),
    DN(___,0,0x000),
    DN(___,0,0x000),
    DN(___,0,0x000),
    DN(___,0,0x000),
    DN(___,0,0x000),
    DN(___,0,0x000),
    DN(___,0,0x000),
    DN(___,1,0x000),
};
static const unsigned char itSquareSP10[] = {
    DN(37,0,0x000),
    DN(36,0,0x000),
    DN(30,0,0x000),
    DN(24,0,0x000),
    DN(22,0,0x000),
    DN(18,0,0x000),
    DN(36,0,0x000),
    DN(___,0,0x000),
    DN(___,7,0x000),
    DN(___,0,0x000),
    DN(___,0,0x000),
    DN(___,0,0x000),
    DN(___,0,0x000),
    DN(___,0,0x000),
    DN(___,0,0x000),
    DN(___,0,0x000),
    DN(___,0,0x000),
    DN(___,0,0x000),
    DN(___,0,0x000),
    DN(___,0,0x000),
    DN(___,0,0x000),
    DN(___,0,0x000),
    DN(___,0,0x000),
    DN(___,0,0x000),
    DN(___,0,0x000),
    DN(___,0,0x000),
    DN(___,0,0x000),
    DN(___,0,0x000),
    DN(___,0,0x000),
    DN(___,0,0x000),
    DN(___,0,0x000),
    DN(___,1,0x000),
};
static const unsigned char itSquareSP11[] = {
    DN(31,0,0x000),
    DN(24,0,0x000),
    DN(13,0,0x000),
    DN(___,0,0xC00),
    DN(___,0,0x000),
    DN(___,5,0x000),
    DN(___,0,0x000),
    DN(___,0,0x000),
    DN(___,0,0x000),
    DN(___,0,0x000),
    DN(___,0,0x000),
    DN(___,0,0x000),
    DN(___,0,0x000),
    DN(___,0,0x000),
    DN(___,0,0x000),
    DN(___,0,0x000),
    DN(___,0,0x000),
    DN(___,0,0x000),
    DN(___,0,0x000),
    DN(___,0,0x000),
    DN(___,0,0x000),
    DN(___,0,0x000),
    DN(___,0,0x000),
    DN(___,0,0x000),
    DN(___,0,0x000),
    DN(___,0,0x000),
    DN(___,0,0x000),
    DN(___,0,0x000),
    DN(___,0,0x000),
    DN(___,0,0x000),
    DN(___,0,0x000),
    DN(___,1,0x000),
};
static const unsigned char itSquareSP12[] = {
    DN(37,0,0x000),
    DN(36,0,0x000),
    DN(30,0,0x000),
    DN(24,0,0x000),
    DN(22,0,0x000),
    DN(18,0,0x000),
    DN(___,0,0xC00),
    DN(___,7,0x000),
    DN(___,0,0x000),
    DN(___,0,0x000),
    DN(___,0,0x000),
    DN(___,0,0x000),
    DN(___,0,0x000),
    DN(___,0,0x000),
    DN(___,0,0x000),
    DN(___,0,0x000),
    DN(___,0,0x000),
    DN(___,0,0x000),
    DN(___,0,0x000),
    DN(___,0,0x000),
    DN(___,0,0x000),
    DN(___,0,0x000),
    DN(___,0,0x000),
    DN(___,0,0x000),
    DN(___,0,0x000),
    DN(___,0,0x000),
    DN(___,0,0x000),
    DN(___,0,0x000),
    DN(___,0,0x000),
    DN(___,0,0x000),
    DN(___,0,0x000),
    DN(___,1,0x000),
};
static const unsigned char itNoiseSP2[] = {
    DN(___,0,0x000),
    DN(___,0,0xC00),
    DN(___,0,0x000),
    DN(___,0,0xC1D),
    DN(___,0,0x000),
    DN(___,0,0x000),
    DN(___,0,0x000),
    DN(___,0,0x000),
    DN(___,8,0x000),
    DN(___,0,0x000),
    DN(___,0,0x000),
    DN(___,0,0x000),
    DN(___,0,0x000),
    DN(___,0,0x000),
    DN(___,0,0x000),
    DN(___,0,0x000),
    DN(___,0,0x000),
    DN(___,0,0x000),
    DN(___,0,0x000),
    DN(___,0,0x000),
    DN(___,0,0x000),
    DN(___,0,0x000),
    DN(___,0,0x000),
    DN(___,0,0x000),
    DN(___,0,0x000),
    DN(___,0,0x000),
    DN(___,0,0x000),
    DN(___,0,0x000),
    DN(___,0,0x000),
    DN(___,0,0x000),
    DN(___,0,0x000),
    DN(___,1,0x000),
};
static const unsigned char* const order1[] = {P28,P28,P0,P4,P0,P14,P15,P15,P20,P22};
static const unsigned char* const order2[] = {P9,P9,P1,P5,P1,P24,P16,P16,P16,P26};
static const unsigned char* const order3[] = {P30,P30,P2,P6,P2,P8,P17,P19,P21,P23};
static const unsigned char* const order4[] = {P31,P33,P27,P3,P3,P7,P27,P3,P3,P25};

static const hUGEDutyInstr_t duty_instruments[] = {
    {8,0,176,0,128},
    {8,64,176,0,128},
    {8,128,176,0,128},
    {8,192,176,0,128},
    {8,0,241,0,128},
    {8,64,241,0,128},
    {8,128,241,0,128},
    {8,192,241,0,128},
    {8,128,176,itSquareSP9,128},
    {8,128,240,itSquareSP10,128},
    {8,128,240,itSquareSP11,128},
    {8,128,240,itSquareSP12,128},
    {8,128,240,0,128},
    {8,128,240,0,128},
    {8,128,240,0,128},
};
static const hUGEWaveInstr_t wave_instruments[] = {
    {0,32,0,0,128},
    {0,32,1,0,128},
    {0,32,2,0,128},
    {0,32,3,0,128},
    {0,32,4,0,128},
    {0,32,5,0,128},
    {0,32,6,0,128},
    {0,32,7,0,128},
    {0,32,8,0,128},
    {0,32,9,0,128},
    {0,32,10,0,128},
    {0,32,11,0,128},
    {0,32,12,0,128},
    {0,32,13,0,128},
    {0,32,14,0,128},
};
static const hUGENoiseInstr_t noise_instruments[] = {
    {241,0,123,0,0},
    {240,itNoiseSP2,0,0,0},
    {129,0,106,0,0},
    {195,0,0,0,0},
    {240,0,0,0,0},
    {240,0,0,0,0},
    {240,0,0,0,0},
    {240,0,0,0,0},
    {240,0,0,0,0},
    {240,0,0,0,0},
    {240,0,0,0,0},
    {240,0,0,0,0},
    {240,0,0,0,0},
    {240,0,0,0,0},
    {240,0,0,0,0},
};

static const unsigned char waves[] = {
    0,0,255,255,255,255,255,255,255,255,255,255,255,255,255,255,
    0,0,0,0,255,255,255,255,255,255,255,255,255,255,255,255,
    0,0,0,0,0,0,0,0,255,255,255,255,255,255,255,255,
    0,0,0,0,0,0,255,255,255,255,255,255,255,255,255,255,
    0,0,0,255,255,255,255,255,255,255,255,255,255,255,255,255,
    34,51,52,68,85,85,86,102,103,119,120,137,170,171,204,239,
    122,205,219,117,33,19,104,189,220,151,65,1,71,156,221,184,
    15,15,15,15,15,15,15,15,15,15,15,15,15,15,15,15,
    254,252,250,248,246,244,242,240,242,244,246,248,250,252,254,255,
    254,221,204,187,170,153,136,119,138,189,241,36,87,138,189,238,
    132,17,97,237,87,71,90,173,206,163,23,121,221,32,3,71,
    40,185,134,51,220,29,83,115,10,196,221,18,216,148,39,94,
    68,216,101,182,230,120,171,162,185,118,69,163,176,3,213,73,
    118,203,103,49,100,162,215,87,11,114,232,101,196,142,222,92,
    137,133,218,152,168,4,41,51,161,90,40,8,172,101,224,169,
    5,60,27,177,75,19,34,161,152,66,142,90,115,145,141,21,
};

const hUGESong_t hotaya = {6, &order_cnt, order1, order2, order3,order4, duty_instruments, wave_instruments, noise_instruments, NULL, waves};
